<?xml version="1.0" encoding="utf-8"?>
<!-- Generator: Adobe Illustrator 16.0.4, SVG Export Plug-In . SVG Version: 6.00 Build 0)  -->
<!DOCTYPE svg PUBLIC "-//W3C//DTD SVG 1.1//EN" "http://www.w3.org/Graphics/SVG/1.1/DTD/svg11.dtd">
<svg version="1.1" id="Layer_1" xmlns="http://www.w3.org/2000/svg" xmlns:xlink="http://www.w3.org/1999/xlink" x="0px" y="0px"
	 width="101.607px" height="34.604px" viewBox="0 0 101.607 34.604" enable-background="new 0 0 101.607 34.604"
	 xml:space="preserve">
<g>
	<g>
		<path fill="#FFFFFF" d="M43.576,7.32h3.987l9.207,12.105V7.32h4.268v19.658h-3.68l-9.515-12.498v12.498h-4.268V7.32z"/>
		<path fill="#FFFFFF" d="M70.751,19.226L63.198,7.32h5.056l4.688,7.891l4.773-7.891h4.915l-7.556,11.825v7.833h-4.323V19.226z"/>
		<path fill="#FFFFFF" d="M84.479,18.553V7.32h4.324v11.12c0,3.202,1.6,4.859,4.241,4.859c2.638,0,4.237-1.602,4.237-4.715V7.32
			h4.326v11.093c0,5.951-3.342,8.873-8.621,8.873C87.708,27.285,84.479,24.339,84.479,18.553z"/>
	</g>
	<g>
		<path fill="#FFFFFF" d="M34.601,34.604H0V0h34.601V34.604L34.601,34.604z M16.104,30.56c0.041,0.242,0.566,0.36,0.684,0
			l1.209-9.589h-2.939L16.104,30.56L16.104,30.56z M19.022,20.278v-1.452h-4.994v1.452H19.022L19.022,20.278z M17.583,18.118
			c6.331,0.228,6.779-5.543,6.804-7.701c0.003-0.125-0.058-0.137-0.09-0.05c-0.185,0.451-1.012,2.06-3.294,3.039
			c-2.038,0.875-3.265,2.859-3.477,4.642C17.516,18.093,17.553,18.115,17.583,18.118z M16.887,17.699
			c1.001-4.804,4.912-4.922,5.262-5.833c0.546-1.422-0.453-3.946-0.708-4.244c-0.024-0.032-0.06-0.012-0.07,0.015
			c-0.533,1.164-1.392,2.27-2.02,2.782c-0.887,0.713-4.283,3.231-2.546,7.282C16.827,17.751,16.875,17.739,16.887,17.699z
			 M16.196,17.892c-2.12-4.531,2.118-7.455,2.811-8.091c0.098-0.087,0.073-0.17,0.073-0.272c0.003-1.424-0.813-3.732-1.081-4.063
			c-0.038-0.05-0.07-0.03-0.085,0.023c-0.364,1.406-2.296,3.502-2.682,3.96c-3.274,3.893-2.526,6.264,0.894,8.5
			C16.169,17.976,16.222,17.943,16.196,17.892z M15.247,18.047c-3.546-2.116-3.191-5.137-1.722-7.36
			c0.033-0.045,0.043-0.124,0.033-0.213c-0.062-0.529-0.638-1.865-0.878-2.228c-0.062-0.093-0.115-0.086-0.12-0.021
			c-0.02,0.603-0.708,2.118-1.76,3.862c-1.118,1.858-1.121,5.887,4.434,6.045C15.285,18.133,15.3,18.08,15.247,18.047z"/>
	</g>
</g>
</svg>
